<svg width="23" height="23" viewBox="0 0 23 23" fill="none" xmlns="http://www.w3.org/2000/svg">
<path d="M5.04266 1.5L1.70605 5.5V19.5C1.70605 20.0304 1.94041 20.5391 2.35757 20.9142C2.77472 21.2893 3.34051 21.5 3.93046 21.5H19.5013C20.0912 21.5 20.657 21.2893 21.0742 20.9142C21.4913 20.5391 21.7257 20.0304 21.7257 19.5V5.5L18.3891 1.5H5.04266Z" stroke="black" stroke-width="2" stroke-linecap="round" stroke-linejoin="round"/>
<path d="M1.70605 5.60257H21.7257" stroke="black" stroke-width="2" stroke-linecap="round" stroke-linejoin="round"/>
<path d="M16.2203 9.70514C16.2203 10.7932 15.7457 11.8367 14.9009 12.6061C14.0562 13.3755 12.9105 13.8077 11.7158 13.8077C10.5212 13.8077 9.37548 13.3755 8.53074 12.6061C7.686 11.8367 7.21143 10.7932 7.21143 9.70514" stroke="black" stroke-width="2" stroke-linecap="round" stroke-linejoin="round"/>
</svg>
